<svg width="24" height="25" viewBox="0 0 24 25" fill="none" xmlns="http://www.w3.org/2000/svg">
<g clip-path="url(#clip0_57_357)">
<path d="M9.101 24.291V16.311H6.627V12.644H9.101V11.064C9.101 6.97904 10.949 5.08604 14.959 5.08604C15.36 5.08604 15.914 5.12804 16.427 5.18904C16.8112 5.22858 17.1924 5.29373 17.568 5.38404V8.70904C17.3509 8.68879 17.133 8.67678 16.915 8.67304C16.6707 8.6667 16.4264 8.6637 16.182 8.66404C15.475 8.66404 14.923 8.76004 14.507 8.97304C14.2273 9.11336 13.9922 9.32872 13.828 9.59504C13.57 10.015 13.454 10.59 13.454 11.347V12.644H17.373L16.987 14.747L16.7 16.311H13.454V24.556C19.396 23.838 24 18.779 24 12.644C24 6.01704 18.627 0.644043 12 0.644043C5.373 0.644043 0 6.01704 0 12.644C0 18.272 3.874 22.994 9.101 24.291Z" fill="#DA0087"/>
</g>
<defs>
<clipPath id="clip0_57_357">
<rect width="24" height="24" fill="white" transform="translate(0 0.600098)"/>
</clipPath>
</defs>
</svg>
