<svg width="44" height="45" viewBox="0 0 44 45" fill="none" xmlns="http://www.w3.org/2000/svg">
<rect y="0.600098" width="44" height="44" rx="12" fill="#FFF0FB"/>
<g clip-path="url(#clip0_57_353)">
<path d="M17.0301 10.6841C15.7533 10.7443 14.8814 10.9481 14.1191 11.2475C13.3303 11.555 12.6616 11.9675 11.9963 12.6352C11.3311 13.3029 10.9213 13.972 10.6161 14.7622C10.3207 15.526 10.1205 16.3987 10.0641 17.6762C10.0077 18.9537 9.99518 19.3644 10.0015 22.6232C10.0077 25.8818 10.0221 26.2903 10.084 27.5705C10.145 28.847 10.348 29.7187 10.6475 30.4812C10.9555 31.2701 11.3675 31.9385 12.0355 32.604C12.7034 33.2695 13.372 33.6783 14.164 33.984C14.9272 34.279 15.8001 34.4801 17.0774 34.536C18.3547 34.592 18.7658 34.605 22.0236 34.5987C25.2814 34.5925 25.6916 34.578 26.9714 34.5173C28.2514 34.4566 29.1184 34.2521 29.8812 33.954C30.6701 33.6454 31.339 33.234 32.004 32.5659C32.669 31.8977 33.0785 31.2281 33.3835 30.4375C33.6792 29.6743 33.8801 28.8015 33.9355 27.5251C33.9915 26.2442 34.0047 25.8353 33.9985 22.5771C33.9922 19.3188 33.9775 18.9103 33.9168 17.6306C33.8561 16.3509 33.6528 15.4819 33.3535 14.7189C33.0451 13.93 32.6335 13.2621 31.9659 12.5961C31.2982 11.9301 30.628 11.5209 29.8378 11.2166C29.074 10.9211 28.2017 10.7198 26.9244 10.6646C25.6471 10.6094 25.236 10.5951 21.977 10.6015C18.718 10.6077 18.31 10.6217 17.0301 10.6841ZM17.1703 32.3772C16.0003 32.3263 15.365 32.1319 14.9416 31.9692C14.381 31.7532 13.9816 31.4921 13.5597 31.0742C13.1377 30.6564 12.8786 30.2556 12.6597 29.6962C12.4953 29.2728 12.2973 28.6382 12.2426 27.4682C12.1831 26.2037 12.1706 25.824 12.1636 22.6202C12.1566 19.4165 12.1689 19.0372 12.2243 17.7722C12.2743 16.6032 12.4699 15.9672 12.6323 15.544C12.8483 14.9827 13.1085 14.584 13.5273 14.1624C13.9461 13.7407 14.3457 13.481 14.9056 13.2621C15.3286 13.097 15.9631 12.9007 17.1326 12.845C18.3981 12.785 18.7773 12.773 21.9806 12.766C25.1839 12.759 25.5641 12.771 26.8301 12.8268C27.9991 12.8776 28.6354 13.0713 29.0581 13.2348C29.6189 13.4508 30.0181 13.7102 30.4397 14.1298C30.8614 14.5492 31.1213 14.9474 31.3402 15.5085C31.5055 15.9302 31.7019 16.5645 31.7571 17.7348C31.8173 19.0003 31.831 19.3798 31.8367 22.5828C31.8425 25.7858 31.8312 26.1662 31.7757 27.4308C31.7247 28.6008 31.5307 29.2363 31.3677 29.6602C31.1517 30.2206 30.8914 30.6202 30.4723 31.0416C30.0533 31.4631 29.6542 31.7227 29.094 31.9416C28.6716 32.1065 28.0363 32.3033 26.8678 32.359C25.6022 32.4185 25.223 32.431 22.0185 32.438C18.814 32.445 18.4358 32.432 17.1703 32.3772ZM26.953 16.1865C26.9535 16.4713 27.0384 16.7496 27.197 16.9862C27.3557 17.2227 27.5809 17.4069 27.8443 17.5155C28.1076 17.624 28.3972 17.652 28.6765 17.5959C28.9557 17.5399 29.2121 17.4022 29.4131 17.2004C29.6141 16.9987 29.7508 16.7418 29.8058 16.4623C29.8609 16.1829 29.8318 15.8933 29.7223 15.6304C29.6128 15.3675 29.4277 15.1429 29.1906 14.9852C28.9534 14.8274 28.6748 14.7435 28.39 14.7441C28.0082 14.7449 27.6423 14.8973 27.3728 15.1678C27.1034 15.4383 26.9523 15.8047 26.953 16.1865ZM15.8385 22.6121C15.8452 26.0153 18.6091 28.7678 22.0115 28.7614C25.4141 28.7549 28.1685 25.9913 28.1621 22.5881C28.1556 19.1849 25.3911 16.4316 21.9881 16.4383C18.5851 16.445 15.8321 19.2093 15.8385 22.6121ZM18 22.6078C17.9984 21.8167 18.2315 21.0429 18.6697 20.3842C19.1079 19.7256 19.7316 19.2116 20.4619 18.9074C21.1922 18.6032 21.9963 18.5224 22.7726 18.6752C23.5488 18.828 24.2623 19.2076 24.8228 19.7659C25.3833 20.3242 25.7657 21.0361 25.9216 21.8118C26.0774 22.5874 25.9998 23.3918 25.6985 24.1233C25.3972 24.8548 24.8858 25.4805 24.2289 25.9214C23.572 26.3622 22.7991 26.5983 22.008 26.5999C21.4827 26.601 20.9623 26.4986 20.4766 26.2986C19.9908 26.0986 19.5492 25.8048 19.1771 25.4341C18.8049 25.0634 18.5094 24.623 18.3074 24.138C18.1054 23.6531 18.001 23.1331 18 22.6078Z" fill="#DA0087"/>
</g>
<defs>
<clipPath id="clip0_57_353">
<rect width="24" height="24" fill="white" transform="translate(10 10.6001)"/>
</clipPath>
</defs>
</svg>
