<svg width="18" height="18" viewBox="0 0 18 18" fill="none" xmlns="http://www.w3.org/2000/svg">
<mask id="mask0_208_711" style="mask-type:alpha" maskUnits="userSpaceOnUse" x="0" y="0" width="18" height="18">
<rect width="18" height="18" fill="#D9D9D9"/>
</mask>
<g mask="url(#mask0_208_711)">
<path d="M12.75 16.5V14.25H10.5V12.75H12.75V10.5H14.25V12.75H16.5V14.25H14.25V16.5H12.75ZM3.75 15C3.3375 15 2.98438 14.8531 2.69063 14.5594C2.39688 14.2656 2.25 13.9125 2.25 13.5V4.5C2.25 4.0875 2.39688 3.73438 2.69063 3.44063C2.98438 3.14688 3.3375 3 3.75 3H4.5V1.5H6V3H10.5V1.5H12V3H12.75C13.1625 3 13.5156 3.14688 13.8094 3.44063C14.1031 3.73438 14.25 4.0875 14.25 4.5V9.075C14 9.0375 13.75 9.01875 13.5 9.01875C13.25 9.01875 13 9.0375 12.75 9.075V7.5H3.75V13.5H9C9 13.75 9.01875 14 9.05625 14.25C9.09375 14.5 9.1625 14.75 9.2625 15H3.75ZM3.75 6H12.75V4.5H3.75V6Z" fill="#F6F6F6"/>
</g>
</svg>
