<svg width="850" height="831" viewBox="0 0 850 831" fill="none" xmlns="http://www.w3.org/2000/svg">
<g opacity="0.2">
<path d="M575.17 -14.9995C575.17 -14.9995 767.884 256.883 722.555 428.683C722.555 428.683 583.248 208.143 393.855 194.859C393.855 194.859 490.616 327.704 509.017 507.044C517.364 588.007 503.901 669.868 466.92 742.484C439.543 796.16 405.614 820.395 342.243 842.745C342.243 842.745 796.607 861.685 846.244 447.533C871.198 239.2 725.877 85.8905 575.17 -14.9995Z" fill="#B0B0B0"/>
<path d="M62.4633 353.816C80.3255 268.993 110.664 210.11 110.664 210.11C-87.6151 307.859 -151.973 476.877 -151.973 476.877C-237.693 326.798 -98.117 34.1812 -98.117 34.1812C-228.448 150.061 -328.71 306.602 -275.393 498.419C-152.511 939.858 295.031 840.404 295.031 840.404C285.247 841.481 268.283 832.685 248.894 819.58C98.0979 716.984 24.9437 532.169 62.4633 353.726V353.816Z" fill="#B0B0B0"/>
<path d="M434.07 425.528C248.985 439.082 201.592 536.292 201.592 536.292C173.497 434.414 303.918 280.207 303.918 280.207C303.918 280.207 131.669 335.589 111.204 543.293C90.6487 750.997 334.616 843.001 334.616 843.001C248.446 667.162 433.98 425.618 434.159 425.528H434.07Z" fill="#B0B0B0"/>
<path d="M-25.3183 218.016C17.3176 223.132 56.004 192.794 61.1203 150.068C66.2366 107.432 35.8978 68.7454 -6.82784 63.6291C-49.4638 58.5128 -88.1502 88.8516 -93.2665 131.577C-98.3828 174.213 -68.044 212.9 -25.3183 218.016Z" fill="#B0B0B0"/>
<path d="M525.176 202.307C565.388 207.244 601.831 178.521 606.678 138.308C611.525 98.096 582.802 61.5638 542.679 56.8065C502.467 51.9595 465.935 80.6826 461.177 120.805C456.33 161.018 485.053 197.55 525.266 202.307H525.176Z" fill="#B0B0B0"/>
<path d="M273.669 365.947C270.168 395.209 290.992 421.688 320.164 425.278C349.426 428.779 375.905 407.955 379.495 378.783C382.996 349.521 362.172 323.042 333 319.451C303.738 315.951 277.259 336.775 273.669 365.947Z" fill="#B0B0B0"/>
</g>
</svg>
