<svg width="209" height="76" viewBox="0 0 209 76" fill="none" xmlns="http://www.w3.org/2000/svg">
<g clip-path="url(#clip0_57_331)">
<path d="M39.2214 10.6001C39.2214 10.6001 45.7304 19.783 44.1994 25.5856C44.1994 25.5856 39.4943 18.1368 33.0975 17.6881C33.0975 17.6881 36.3656 22.175 36.9871 28.2323C37.269 30.9669 36.8143 33.7317 35.5652 36.1844C34.6406 37.9973 33.4946 38.8159 31.3542 39.5707C31.3542 39.5707 46.7006 40.2104 48.3771 26.2223C49.2199 19.1858 44.3116 14.0077 39.2214 10.6001Z" fill="#F6F6F6"/>
<path d="M21.9046 23.057C22.5079 20.1921 23.5326 18.2033 23.5326 18.2033C16.8356 21.5048 14.6619 27.2134 14.6619 27.2134C11.7667 22.1445 16.4809 12.2612 16.4809 12.2612C12.0789 16.1751 8.69256 21.4624 10.4934 27.941C14.6437 42.8508 29.7596 39.4917 29.7596 39.4917C29.4292 39.5281 28.8562 39.231 28.2014 38.7884C23.1082 35.3232 20.6373 29.0809 21.9046 23.054V23.057Z" fill="#F6F6F6"/>
<path d="M34.4557 25.4796C28.2044 25.9373 26.6037 29.2206 26.6037 29.2206C25.6548 25.7797 30.0598 20.5713 30.0598 20.5713C30.0598 20.5713 24.242 22.4418 23.5508 29.4571C22.8566 36.4724 31.0966 39.5799 31.0966 39.5799C28.1862 33.6408 34.4527 25.4826 34.4588 25.4796H34.4557Z" fill="#F6F6F6"/>
<path d="M18.9396 18.4703C20.3796 18.6431 21.6863 17.6184 21.8591 16.1753C22.0319 14.7353 21.0072 13.4286 19.5641 13.2558C18.1241 13.083 16.8174 14.1077 16.6446 15.5508C16.4718 16.9908 17.4965 18.2975 18.9396 18.4703Z" fill="#F6F6F6"/>
<path d="M37.5329 17.9397C38.8911 18.1064 40.1219 17.1363 40.2856 15.7781C40.4493 14.4199 39.4792 13.186 38.124 13.0253C36.7659 12.8616 35.532 13.8318 35.3713 15.1869C35.2076 16.5451 36.1777 17.779 37.5359 17.9397H37.5329Z" fill="#F6F6F6"/>
<path d="M29.0381 23.4667C28.9199 24.455 29.6232 25.3493 30.6085 25.4706C31.5968 25.5888 32.4912 24.8855 32.6125 23.9002C32.7307 22.9119 32.0273 22.0175 31.042 21.8963C30.0537 21.778 29.1594 22.4814 29.0381 23.4667Z" fill="#F6F6F6"/>
<path d="M60.2999 37.1001H54.3199L63.2799 12.6001H69.5799L78.4999 37.1001H71.8499L70.1699 32.4101H61.9799L60.2999 37.1001ZM66.0799 20.3001L63.7699 27.5801H68.3899L66.0799 20.3001ZM90.2299 37.1001H83.9299L77.5899 12.6001H84.2699L87.5999 27.7901L91.4499 12.6001H97.3999L101.7 27.8601L105.28 12.6001H111.23L104.93 37.1001H98.6299L94.2499 21.2801L90.2299 37.1001ZM124.52 37.5501C122.28 37.5501 120.303 37.1368 118.59 36.3101C116.877 35.4835 115.54 34.1468 114.58 32.3001C113.627 30.4601 113.15 28.0235 113.15 24.9901V24.3201C113.15 22.1735 113.44 20.3301 114.02 18.7901C114.607 17.2501 115.42 15.9901 116.46 15.0101C117.5 14.0301 118.707 13.3068 120.08 12.8401C121.453 12.3735 122.933 12.1401 124.52 12.1401C125.947 12.1401 127.29 12.3035 128.55 12.6301C129.81 12.9568 130.913 13.4701 131.86 14.1701C132.807 14.8701 133.57 15.7801 134.15 16.9001C134.737 18.0201 135.087 19.3868 135.2 21.0001H128.66C128.447 19.7135 127.957 18.7901 127.19 18.2301C126.417 17.6701 125.527 17.3901 124.52 17.3901C123.593 17.3901 122.76 17.6201 122.02 18.0801C121.287 18.5335 120.71 19.2601 120.29 20.2601C119.87 21.2668 119.66 22.6201 119.66 24.3201V25.0601C119.66 26.4135 119.79 27.5568 120.05 28.4901C120.303 29.4235 120.657 30.1701 121.11 30.7301C121.57 31.2901 122.09 31.6935 122.67 31.9401C123.257 32.1801 123.873 32.3001 124.52 32.3001C125.713 32.3001 126.667 32.0168 127.38 31.4501C128.087 30.8768 128.513 29.9601 128.66 28.7001H135.2C135.107 30.3335 134.773 31.7168 134.2 32.8501C133.627 33.9835 132.87 34.8935 131.93 35.5801C130.983 36.2668 129.88 36.7668 128.62 37.0801C127.36 37.3935 125.993 37.5501 124.52 37.5501ZM145.17 37.1001H138.88V12.6001H145.17V21.9101H154.28V12.6001H160.58V37.1001H154.28V27.0901H145.17V37.1001Z" fill="#F6F6F6"/>
</g>
<path d="M18.294 55.3081H17.046C16.8813 54.7708 16.5823 54.3591 16.149 54.0731C15.7243 53.7784 15.2303 53.6311 14.667 53.6311C14.095 53.6311 13.601 53.7741 13.185 54.0601C12.7777 54.3461 12.4613 54.7578 12.236 55.2951C12.0193 55.8238 11.911 56.4564 11.911 57.1931C11.911 57.9298 12.0193 58.5624 12.236 59.0911C12.4527 59.6198 12.7647 60.0271 13.172 60.3131C13.588 60.5904 14.0863 60.7291 14.667 60.7291C15.213 60.7291 15.694 60.5904 16.11 60.3131C16.526 60.0358 16.8293 59.6328 17.02 59.1041H18.281C18.1163 59.6588 17.8563 60.1354 17.501 60.5341C17.1457 60.9328 16.721 61.2361 16.227 61.4441C15.7417 61.6521 15.2173 61.7561 14.654 61.7561C13.8307 61.7561 13.12 61.5741 12.522 61.2101C11.9327 60.8374 11.4777 60.3131 11.157 59.6371C10.845 58.9524 10.689 58.1378 10.689 57.1931C10.689 56.2484 10.8493 55.4338 11.17 54.7491C11.4993 54.0644 11.963 53.5358 12.561 53.1631C13.159 52.7904 13.874 52.6041 14.706 52.6041C15.278 52.6041 15.8067 52.7081 16.292 52.9161C16.786 53.1154 17.2063 53.4188 17.553 53.8261C17.9083 54.2248 18.1553 54.7188 18.294 55.3081ZM22.5666 61.7561C21.908 61.7561 21.3403 61.6131 20.8636 61.3271C20.3956 61.0411 20.036 60.6294 19.7846 60.0921C19.5333 59.5461 19.4076 58.9004 19.4076 58.1551C19.4076 57.3751 19.5333 56.7164 19.7846 56.1791C20.0446 55.6418 20.413 55.2344 20.8896 54.9571C21.3663 54.6711 21.9253 54.5281 22.5666 54.5281C23.2253 54.5281 23.7886 54.6754 24.2566 54.9701C24.7333 55.2561 25.0973 55.6721 25.3486 56.2181C25.6 56.7554 25.7256 57.4011 25.7256 58.1551C25.7256 58.9264 25.5956 59.5808 25.3356 60.1181C25.0843 60.6554 24.7203 61.0628 24.2436 61.3401C23.7756 61.6174 23.2166 61.7561 22.5666 61.7561ZM22.5666 60.7681C23.208 60.7681 23.6976 60.5428 24.0356 60.0921C24.3823 59.6414 24.5556 58.9958 24.5556 58.1551C24.5556 57.3144 24.3823 56.6644 24.0356 56.2051C23.6976 55.7458 23.208 55.5161 22.5666 55.5161C21.9253 55.5161 21.4313 55.7458 21.0846 56.2051C20.7466 56.6558 20.5776 57.3058 20.5776 58.1551C20.5776 58.9871 20.751 59.6328 21.0976 60.0921C21.4443 60.5428 21.934 60.7681 22.5666 60.7681ZM27.1981 61.6001V54.6971H28.3421V61.6001H27.1981ZM28.3421 57.5181H27.7961C27.8394 56.8594 27.9694 56.3091 28.1861 55.8671C28.4028 55.4251 28.6931 55.0914 29.0571 54.8661C29.4298 54.6408 29.8501 54.5281 30.3181 54.5281C30.7774 54.5281 31.1674 54.6234 31.4881 54.8141C31.8174 54.9961 32.0688 55.2691 32.2421 55.6331C32.4154 55.9971 32.5021 56.4478 32.5021 56.9851V61.6001H31.3581V57.2191C31.3581 56.8724 31.3104 56.5734 31.2151 56.3221C31.1198 56.0621 30.9724 55.8628 30.7731 55.7241C30.5738 55.5768 30.3181 55.5031 30.0061 55.5031C29.7461 55.5031 29.5121 55.5638 29.3041 55.6851C29.1048 55.7978 28.9314 55.9494 28.7841 56.1401C28.6368 56.3308 28.5241 56.5474 28.4461 56.7901C28.3768 57.0241 28.3421 57.2668 28.3421 57.5181ZM32.5021 57.5181H31.8261C31.8694 56.8594 32.0038 56.3091 32.2291 55.8671C32.4544 55.4251 32.7534 55.0914 33.1261 54.8661C33.4988 54.6408 33.9278 54.5281 34.4131 54.5281C34.8811 54.5281 35.2841 54.6234 35.6221 54.8141C35.9601 54.9961 36.2158 55.2691 36.3891 55.6331C36.5711 55.9971 36.6621 56.4478 36.6621 56.9851V61.6001H35.5181V57.2191C35.5181 56.8724 35.4704 56.5734 35.3751 56.3221C35.2798 56.0621 35.1324 55.8628 34.9331 55.7241C34.7338 55.5768 34.4781 55.5031 34.1661 55.5031C33.9061 55.5031 33.6721 55.5638 33.4641 55.6851C33.2648 55.7978 33.0914 55.9494 32.9441 56.1401C32.7968 56.3308 32.6841 56.5474 32.6061 56.7901C32.5368 57.0241 32.5021 57.2668 32.5021 57.5181ZM41.5782 54.5281C42.1936 54.5281 42.7179 54.6711 43.1512 54.9571C43.5932 55.2431 43.9312 55.6548 44.1652 56.1921C44.3992 56.7294 44.5162 57.3751 44.5162 58.1291C44.5162 59.2991 44.2519 60.1961 43.7232 60.8201C43.1946 61.4441 42.4796 61.7561 41.5782 61.7561C40.7809 61.7561 40.1439 61.4484 39.6672 60.8331C39.1992 60.2091 38.9652 59.3078 38.9652 58.1291C38.9652 57.4011 39.0692 56.7684 39.2772 56.2311C39.4939 55.6938 39.7972 55.2778 40.1872 54.9831C40.5859 54.6798 41.0496 54.5281 41.5782 54.5281ZM41.5002 55.5161C40.8936 55.5161 40.4299 55.7414 40.1092 56.1921C39.7972 56.6341 39.6412 57.2798 39.6412 58.1291C39.6412 58.9698 39.8016 59.6198 40.1222 60.0791C40.4516 60.5384 40.9109 60.7681 41.5002 60.7681C42.0982 60.7681 42.5532 60.5428 42.8652 60.0921C43.1859 59.6328 43.3462 58.9784 43.3462 58.1291C43.3462 57.2971 43.1859 56.6558 42.8652 56.2051C42.5446 55.7458 42.0896 55.5161 41.5002 55.5161ZM39.6412 64.4601H38.4972V54.6971H39.6412V64.4601ZM47.0401 56.9461H45.8961C45.9741 56.4348 46.1345 56.0014 46.3771 55.6461C46.6198 55.2821 46.9448 55.0048 47.3521 54.8141C47.7595 54.6234 48.2448 54.5281 48.8081 54.5281C49.4235 54.5281 49.9348 54.6408 50.3421 54.8661C50.7495 55.0914 51.0528 55.4078 51.2521 55.8151C51.4515 56.2138 51.5511 56.6818 51.5511 57.2191V59.9361C51.5511 60.3348 51.5685 60.6641 51.6031 60.9241C51.6465 61.1841 51.7115 61.4094 51.7981 61.6001H50.5891C50.5025 61.4268 50.4505 61.2101 50.4331 60.9501C50.4158 60.6901 50.4071 60.4344 50.4071 60.1831V57.2451C50.4071 56.6904 50.2685 56.2658 49.9911 55.9711C49.7225 55.6678 49.2935 55.5161 48.7041 55.5161C48.2101 55.5161 47.8245 55.6461 47.5471 55.9061C47.2785 56.1574 47.1095 56.5041 47.0401 56.9461ZM50.5761 57.4011V58.2591C49.8048 58.2591 49.1721 58.2981 48.6781 58.3761C48.1928 58.4454 47.8158 58.5494 47.5471 58.6881C47.2785 58.8181 47.0921 58.9741 46.9881 59.1561C46.8841 59.3381 46.8321 59.5374 46.8321 59.7541C46.8321 60.0748 46.9535 60.3261 47.1961 60.5081C47.4475 60.6814 47.7725 60.7681 48.1711 60.7681C48.5958 60.7681 48.9771 60.6684 49.3151 60.4691C49.6531 60.2698 49.9175 60.0054 50.1081 59.6761C50.3075 59.3381 50.4071 58.9741 50.4071 58.5841H51.0181C50.9835 59.1474 50.8708 59.6328 50.6801 60.0401C50.4981 60.4388 50.2598 60.7638 49.9651 61.0151C49.6791 61.2664 49.3715 61.4528 49.0421 61.5741C48.7128 61.6954 48.3835 61.7561 48.0541 61.7561C47.5775 61.7561 47.1571 61.6824 46.7931 61.5351C46.4378 61.3878 46.1605 61.1668 45.9611 60.8721C45.7618 60.5774 45.6621 60.2134 45.6621 59.7801C45.6621 59.3034 45.7878 58.9004 46.0391 58.5711C46.2991 58.2331 46.6848 57.9774 47.1961 57.8041C47.6815 57.6394 48.1885 57.5311 48.7171 57.4791C49.2458 57.4271 49.8655 57.4011 50.5761 57.4011ZM54.2716 56.4651C54.2716 56.7424 54.3496 56.9548 54.5056 57.1021C54.6703 57.2494 54.8869 57.3621 55.1556 57.4401C55.4243 57.5181 55.7189 57.5831 56.0396 57.6351C56.3603 57.6784 56.6766 57.7348 56.9886 57.8041C57.3093 57.8734 57.6039 57.9774 57.8726 58.1161C58.1413 58.2461 58.3536 58.4324 58.5096 58.6751C58.6743 58.9178 58.7566 59.2428 58.7566 59.6501C58.7566 60.0748 58.6396 60.4474 58.4056 60.7681C58.1716 61.0801 57.8466 61.3228 57.4306 61.4961C57.0146 61.6694 56.5336 61.7561 55.9876 61.7561C55.1729 61.7561 54.4926 61.5611 53.9466 61.1711C53.4093 60.7724 53.0756 60.1658 52.9456 59.3511H54.0896C54.1676 59.8278 54.3756 60.1961 54.7136 60.4561C55.0603 60.7161 55.4979 60.8461 56.0266 60.8461C56.5466 60.8461 56.9409 60.7421 57.2096 60.5341C57.4783 60.3174 57.6126 60.0488 57.6126 59.7281C57.6126 59.4594 57.5303 59.2514 57.3656 59.1041C57.2096 58.9568 56.9973 58.8484 56.7286 58.7791C56.4686 58.7011 56.1783 58.6361 55.8576 58.5841C55.5456 58.5321 55.2336 58.4714 54.9216 58.4021C54.6096 58.3328 54.3193 58.2331 54.0506 58.1031C53.7906 57.9644 53.5783 57.7738 53.4136 57.5311C53.2576 57.2798 53.1796 56.9504 53.1796 56.5431C53.1796 56.1878 53.2706 55.8584 53.4526 55.5551C53.6346 55.2518 53.9119 55.0048 54.2846 54.8141C54.6573 54.6234 55.1253 54.5281 55.6886 54.5281C56.1913 54.5281 56.6376 54.6104 57.0276 54.7751C57.4263 54.9398 57.7556 55.1998 58.0156 55.5551C58.2756 55.9104 58.4403 56.3741 58.5096 56.9461H57.3656C57.2789 56.4088 57.0883 56.0274 56.7936 55.8021C56.4989 55.5768 56.1089 55.4641 55.6236 55.4641C55.1989 55.4641 54.8653 55.5594 54.6226 55.7501C54.3886 55.9408 54.2716 56.1791 54.2716 56.4651ZM60.962 56.4651C60.962 56.7424 61.04 56.9548 61.196 57.1021C61.3607 57.2494 61.5774 57.3621 61.846 57.4401C62.1147 57.5181 62.4094 57.5831 62.73 57.6351C63.0507 57.6784 63.367 57.7348 63.679 57.8041C63.9997 57.8734 64.2944 57.9774 64.563 58.1161C64.8317 58.2461 65.044 58.4324 65.2 58.6751C65.3647 58.9178 65.447 59.2428 65.447 59.6501C65.447 60.0748 65.33 60.4474 65.096 60.7681C64.862 61.0801 64.537 61.3228 64.121 61.4961C63.705 61.6694 63.224 61.7561 62.678 61.7561C61.8634 61.7561 61.183 61.5611 60.637 61.1711C60.0997 60.7724 59.766 60.1658 59.636 59.3511H60.78C60.858 59.8278 61.066 60.1961 61.404 60.4561C61.7507 60.7161 62.1884 60.8461 62.717 60.8461C63.237 60.8461 63.6314 60.7421 63.9 60.5341C64.1687 60.3174 64.303 60.0488 64.303 59.7281C64.303 59.4594 64.2207 59.2514 64.056 59.1041C63.9 58.9568 63.6877 58.8484 63.419 58.7791C63.159 58.7011 62.8687 58.6361 62.548 58.5841C62.236 58.5321 61.924 58.4714 61.612 58.4021C61.3 58.3328 61.0097 58.2331 60.741 58.1031C60.481 57.9644 60.2687 57.7738 60.104 57.5311C59.948 57.2798 59.87 56.9504 59.87 56.5431C59.87 56.1878 59.961 55.8584 60.143 55.5551C60.325 55.2518 60.6024 55.0048 60.975 54.8141C61.3477 54.6234 61.8157 54.5281 62.379 54.5281C62.8817 54.5281 63.328 54.6104 63.718 54.7751C64.1167 54.9398 64.446 55.1998 64.706 55.5551C64.966 55.9104 65.1307 56.3741 65.2 56.9461H64.056C63.9694 56.4088 63.7787 56.0274 63.484 55.8021C63.1894 55.5768 62.7994 55.4641 62.314 55.4641C61.8894 55.4641 61.5557 55.5594 61.313 55.7501C61.079 55.9408 60.962 56.1791 60.962 56.4651ZM66.8075 61.6001V54.6971H67.9515V61.6001H66.8075ZM66.8075 53.7741V52.2401H67.9515V53.7741H66.8075ZM72.5735 61.7561C71.9148 61.7561 71.3471 61.6131 70.8705 61.3271C70.4025 61.0411 70.0428 60.6294 69.7915 60.0921C69.5401 59.5461 69.4145 58.9004 69.4145 58.1551C69.4145 57.3751 69.5401 56.7164 69.7915 56.1791C70.0515 55.6418 70.4198 55.2344 70.8965 54.9571C71.3731 54.6711 71.9321 54.5281 72.5735 54.5281C73.2321 54.5281 73.7955 54.6754 74.2635 54.9701C74.7401 55.2561 75.1041 55.6721 75.3555 56.2181C75.6068 56.7554 75.7325 57.4011 75.7325 58.1551C75.7325 58.9264 75.6025 59.5808 75.3425 60.1181C75.0911 60.6554 74.7271 61.0628 74.2505 61.3401C73.7825 61.6174 73.2235 61.7561 72.5735 61.7561ZM72.5735 60.7681C73.2148 60.7681 73.7045 60.5428 74.0425 60.0921C74.3891 59.6414 74.5625 58.9958 74.5625 58.1551C74.5625 57.3144 74.3891 56.6644 74.0425 56.2051C73.7045 55.7458 73.2148 55.5161 72.5735 55.5161C71.9321 55.5161 71.4381 55.7458 71.0915 56.2051C70.7535 56.6558 70.5845 57.3058 70.5845 58.1551C70.5845 58.9871 70.7578 59.6328 71.1045 60.0921C71.4511 60.5428 71.9408 60.7681 72.5735 60.7681ZM77.2049 61.6001V54.6971H78.3489V61.6001H77.2049ZM78.3489 57.5181H77.8029C77.8463 56.8594 77.9806 56.3091 78.2059 55.8671C78.4399 55.4251 78.7519 55.0914 79.1419 54.8661C79.5319 54.6408 79.9783 54.5281 80.4809 54.5281C80.9749 54.5281 81.3953 54.6234 81.7419 54.8141C82.0886 54.9961 82.3529 55.2691 82.5349 55.6331C82.7256 55.9971 82.8209 56.4478 82.8209 56.9851V61.6001H81.6769V57.2191C81.6769 56.8724 81.6206 56.5734 81.5079 56.3221C81.4039 56.0621 81.2393 55.8628 81.0139 55.7241C80.7973 55.5768 80.5156 55.5031 80.1689 55.5031C79.8829 55.5031 79.6273 55.5638 79.4019 55.6851C79.1766 55.7978 78.9859 55.9494 78.8299 56.1401C78.6739 56.3308 78.5526 56.5474 78.4659 56.7901C78.3879 57.0241 78.3489 57.2668 78.3489 57.5181ZM84.5144 61.6001V60.1961H85.9184V60.9501C85.9184 61.3488 85.8967 61.7041 85.8534 62.0161C85.81 62.3368 85.7407 62.6314 85.6454 62.9001C85.55 63.1774 85.4244 63.4591 85.2684 63.7451H84.6184C84.7224 63.4851 84.809 63.2424 84.8784 63.0171C84.9477 62.7918 84.9997 62.5664 85.0344 62.3411C85.069 62.1158 85.0864 61.8688 85.0864 61.6001H84.5144ZM97.5889 55.3081H96.3409C96.1763 54.7708 95.8773 54.3591 95.4439 54.0731C95.0193 53.7784 94.5253 53.6311 93.9619 53.6311C93.3899 53.6311 92.8959 53.7741 92.4799 54.0601C92.0726 54.3461 91.7563 54.7578 91.5309 55.2951C91.3143 55.8238 91.2059 56.4564 91.2059 57.1931C91.2059 57.9298 91.3143 58.5624 91.5309 59.0911C91.7476 59.6198 92.0596 60.0271 92.4669 60.3131C92.8829 60.5904 93.3813 60.7291 93.9619 60.7291C94.5079 60.7291 94.9889 60.5904 95.4049 60.3131C95.8209 60.0358 96.1243 59.6328 96.3149 59.1041H97.5759C97.4113 59.6588 97.1513 60.1354 96.7959 60.5341C96.4406 60.9328 96.0159 61.2361 95.5219 61.4441C95.0366 61.6521 94.5123 61.7561 93.9489 61.7561C93.1256 61.7561 92.4149 61.5741 91.8169 61.2101C91.2276 60.8374 90.7726 60.3131 90.4519 59.6371C90.1399 58.9524 89.9839 58.1378 89.9839 57.1931C89.9839 56.2484 90.1443 55.4338 90.4649 54.7491C90.7943 54.0644 91.2579 53.5358 91.8559 53.1631C92.4539 52.7904 93.1689 52.6041 94.0009 52.6041C94.5729 52.6041 95.1016 52.7081 95.5869 52.9161C96.0809 53.1154 96.5013 53.4188 96.8479 53.8261C97.2033 54.2248 97.4503 54.7188 97.5889 55.3081ZM100.107 56.9461H98.9626C99.0406 56.4348 99.2009 56.0014 99.4436 55.6461C99.6862 55.2821 100.011 55.0048 100.419 54.8141C100.826 54.6234 101.311 54.5281 101.875 54.5281C102.49 54.5281 103.001 54.6408 103.409 54.8661C103.816 55.0914 104.119 55.4078 104.319 55.8151C104.518 56.2138 104.618 56.6818 104.618 57.2191V59.9361C104.618 60.3348 104.635 60.6641 104.67 60.9241C104.713 61.1841 104.778 61.4094 104.865 61.6001H103.656C103.569 61.4268 103.517 61.2101 103.5 60.9501C103.482 60.6901 103.474 60.4344 103.474 60.1831V57.2451C103.474 56.6904 103.335 56.2658 103.058 55.9711C102.789 55.6678 102.36 55.5161 101.771 55.5161C101.277 55.5161 100.891 55.6461 100.614 55.9061C100.345 56.1574 100.176 56.5041 100.107 56.9461ZM103.643 57.4011V58.2591C102.871 58.2591 102.239 58.2981 101.745 58.3761C101.259 58.4454 100.882 58.5494 100.614 58.6881C100.345 58.8181 100.159 58.9741 100.055 59.1561C99.9506 59.3381 99.8986 59.5374 99.8986 59.7541C99.8986 60.0748 100.02 60.3261 100.263 60.5081C100.514 60.6814 100.839 60.7681 101.238 60.7681C101.662 60.7681 102.044 60.6684 102.382 60.4691C102.72 60.2698 102.984 60.0054 103.175 59.6761C103.374 59.3381 103.474 58.9741 103.474 58.5841H104.085C104.05 59.1474 103.937 59.6328 103.747 60.0401C103.565 60.4388 103.326 60.7638 103.032 61.0151C102.746 61.2664 102.438 61.4528 102.109 61.5741C101.779 61.6954 101.45 61.7561 101.121 61.7561C100.644 61.7561 100.224 61.6824 99.8596 61.5351C99.5042 61.3878 99.2269 61.1668 99.0276 60.8721C98.8282 60.5774 98.7286 60.2134 98.7286 59.7801C98.7286 59.3034 98.8542 58.9004 99.1056 58.5711C99.3656 58.2331 99.7512 57.9774 100.263 57.8041C100.748 57.6394 101.255 57.5311 101.784 57.4791C102.312 57.4271 102.932 57.4011 103.643 57.4011ZM106.493 61.6001V54.6971H107.637V61.6001H106.493ZM107.637 57.7391H107.117C107.169 56.9938 107.312 56.3871 107.546 55.9191C107.789 55.4424 108.092 55.0914 108.456 54.8661C108.829 54.6408 109.236 54.5281 109.678 54.5281C109.817 54.5281 109.942 54.5454 110.055 54.5801C110.176 54.6061 110.267 54.6451 110.328 54.6971V55.7241C110.233 55.6894 110.124 55.6678 110.003 55.6591C109.882 55.6418 109.752 55.6331 109.613 55.6331C109.266 55.6331 108.967 55.6851 108.716 55.7891C108.473 55.8844 108.27 56.0274 108.105 56.2181C107.949 56.4088 107.832 56.6341 107.754 56.8941C107.676 57.1454 107.637 57.4271 107.637 57.7391ZM116.624 57.4921L115.974 58.1031C115.974 57.2798 115.8 56.6428 115.454 56.1921C115.116 55.7414 114.635 55.5161 114.011 55.5161C113.369 55.5161 112.88 55.7458 112.542 56.2051C112.204 56.6558 112.035 57.3058 112.035 58.1551C112.035 58.9871 112.212 59.6328 112.568 60.0921C112.923 60.5428 113.426 60.7681 114.076 60.7681C114.561 60.7681 114.968 60.6511 115.298 60.4171C115.636 60.1831 115.865 59.8278 115.987 59.3511H117.183C116.992 60.1571 116.619 60.7594 116.065 61.1581C115.519 61.5568 114.856 61.7561 114.076 61.7561C113.408 61.7561 112.832 61.6131 112.347 61.3271C111.87 61.0411 111.502 60.6294 111.242 60.0921C110.99 59.5461 110.865 58.9004 110.865 58.1551C110.865 57.3751 110.99 56.7164 111.242 56.1791C111.502 55.6418 111.866 55.2344 112.334 54.9571C112.81 54.6711 113.369 54.5281 114.011 54.5281C114.661 54.5281 115.215 54.6711 115.675 54.9571C116.143 55.2431 116.502 55.6504 116.754 56.1791C117.005 56.6991 117.131 57.3274 117.131 58.0641V58.3501H111.346V57.4921H116.624ZM118.271 61.6001V60.1961H119.675V60.9501C119.675 61.3488 119.654 61.7041 119.61 62.0161C119.567 62.3368 119.498 62.6314 119.402 62.9001C119.307 63.1774 119.181 63.4591 119.025 63.7451H118.375C118.479 63.4851 118.566 63.2424 118.635 63.0171C118.705 62.7918 118.757 62.5664 118.791 62.3411C118.826 62.1158 118.843 61.8688 118.843 61.6001H118.271ZM131.346 55.3081H130.098C129.933 54.7708 129.634 54.3591 129.201 54.0731C128.776 53.7784 128.282 53.6311 127.719 53.6311C127.147 53.6311 126.653 53.7741 126.237 54.0601C125.829 54.3461 125.513 54.7578 125.288 55.2951C125.071 55.8238 124.963 56.4564 124.963 57.1931C124.963 57.9298 125.071 58.5624 125.288 59.0911C125.504 59.6198 125.816 60.0271 126.224 60.3131C126.64 60.5904 127.138 60.7291 127.719 60.7291C128.265 60.7291 128.746 60.5904 129.162 60.3131C129.578 60.0358 129.881 59.6328 130.072 59.1041H131.333C131.168 59.6588 130.908 60.1354 130.553 60.5341C130.197 60.9328 129.773 61.2361 129.279 61.4441C128.793 61.6521 128.269 61.7561 127.706 61.7561C126.882 61.7561 126.172 61.5741 125.574 61.2101C124.984 60.8374 124.529 60.3131 124.209 59.6371C123.897 58.9524 123.741 58.1378 123.741 57.1931C123.741 56.2484 123.901 55.4338 124.222 54.7491C124.551 54.0644 125.015 53.5358 125.613 53.1631C126.211 52.7904 126.926 52.6041 127.758 52.6041C128.33 52.6041 128.858 52.7081 129.344 52.9161C129.838 53.1154 130.258 53.4188 130.605 53.8261C130.96 54.2248 131.207 54.7188 131.346 55.3081ZM135.618 61.7561C134.96 61.7561 134.392 61.6131 133.915 61.3271C133.447 61.0411 133.088 60.6294 132.836 60.0921C132.585 59.5461 132.459 58.9004 132.459 58.1551C132.459 57.3751 132.585 56.7164 132.836 56.1791C133.096 55.6418 133.465 55.2344 133.941 54.9571C134.418 54.6711 134.977 54.5281 135.618 54.5281C136.277 54.5281 136.84 54.6754 137.308 54.9701C137.785 55.2561 138.149 55.6721 138.4 56.2181C138.652 56.7554 138.777 57.4011 138.777 58.1551C138.777 58.9264 138.647 59.5808 138.387 60.1181C138.136 60.6554 137.772 61.0628 137.295 61.3401C136.827 61.6174 136.268 61.7561 135.618 61.7561ZM135.618 60.7681C136.26 60.7681 136.749 60.5428 137.087 60.0921C137.434 59.6414 137.607 58.9958 137.607 58.1551C137.607 57.3144 137.434 56.6644 137.087 56.2051C136.749 55.7458 136.26 55.5161 135.618 55.5161C134.977 55.5161 134.483 55.7458 134.136 56.2051C133.798 56.6558 133.629 57.3058 133.629 58.1551C133.629 58.9871 133.803 59.6328 134.149 60.0921C134.496 60.5428 134.986 60.7681 135.618 60.7681ZM140.25 61.6001V54.6971H141.394V61.6001H140.25ZM141.394 57.5181H140.848C140.891 56.8594 141.021 56.3091 141.238 55.8671C141.455 55.4251 141.745 55.0914 142.109 54.8661C142.482 54.6408 142.902 54.5281 143.37 54.5281C143.829 54.5281 144.219 54.6234 144.54 54.8141C144.869 54.9961 145.121 55.2691 145.294 55.6331C145.467 55.9971 145.554 56.4478 145.554 56.9851V61.6001H144.41V57.2191C144.41 56.8724 144.362 56.5734 144.267 56.3221C144.172 56.0621 144.024 55.8628 143.825 55.7241C143.626 55.5768 143.37 55.5031 143.058 55.5031C142.798 55.5031 142.564 55.5638 142.356 55.6851C142.157 55.7978 141.983 55.9494 141.836 56.1401C141.689 56.3308 141.576 56.5474 141.498 56.7901C141.429 57.0241 141.394 57.2668 141.394 57.5181ZM145.554 57.5181H144.878C144.921 56.8594 145.056 56.3091 145.281 55.8671C145.506 55.4251 145.805 55.0914 146.178 54.8661C146.551 54.6408 146.98 54.5281 147.465 54.5281C147.933 54.5281 148.336 54.6234 148.674 54.8141C149.012 54.9961 149.268 55.2691 149.441 55.6331C149.623 55.9971 149.714 56.4478 149.714 56.9851V61.6001H148.57V57.2191C148.57 56.8724 148.522 56.5734 148.427 56.3221C148.332 56.0621 148.184 55.8628 147.985 55.7241C147.786 55.5768 147.53 55.5031 147.218 55.5031C146.958 55.5031 146.724 55.5638 146.516 55.6851C146.317 55.7978 146.143 55.9494 145.996 56.1401C145.849 56.3308 145.736 56.5474 145.658 56.7901C145.589 57.0241 145.554 57.2668 145.554 57.5181ZM151.536 61.6001V54.6971H152.68V61.6001H151.536ZM152.68 57.5181H152.134C152.177 56.8594 152.307 56.3091 152.524 55.8671C152.741 55.4251 153.031 55.0914 153.395 54.8661C153.768 54.6408 154.188 54.5281 154.656 54.5281C155.115 54.5281 155.505 54.6234 155.826 54.8141C156.155 54.9961 156.407 55.2691 156.58 55.6331C156.753 55.9971 156.84 56.4478 156.84 56.9851V61.6001H155.696V57.2191C155.696 56.8724 155.648 56.5734 155.553 56.3221C155.458 56.0621 155.31 55.8628 155.111 55.7241C154.912 55.5768 154.656 55.5031 154.344 55.5031C154.084 55.5031 153.85 55.5638 153.642 55.6851C153.443 55.7978 153.269 55.9494 153.122 56.1401C152.975 56.3308 152.862 56.5474 152.784 56.7901C152.715 57.0241 152.68 57.2668 152.68 57.5181ZM156.84 57.5181H156.164C156.207 56.8594 156.342 56.3091 156.567 55.8671C156.792 55.4251 157.091 55.0914 157.464 54.8661C157.837 54.6408 158.266 54.5281 158.751 54.5281C159.219 54.5281 159.622 54.6234 159.96 54.8141C160.298 54.9961 160.554 55.2691 160.727 55.6331C160.909 55.9971 161 56.4478 161 56.9851V61.6001H159.856V57.2191C159.856 56.8724 159.808 56.5734 159.713 56.3221C159.618 56.0621 159.47 55.8628 159.271 55.7241C159.072 55.5768 158.816 55.5031 158.504 55.5031C158.244 55.5031 158.01 55.5638 157.802 55.6851C157.603 55.7978 157.429 55.9494 157.282 56.1401C157.135 56.3308 157.022 56.5474 156.944 56.7901C156.875 57.0241 156.84 57.2668 156.84 57.5181ZM162.822 61.6001V54.6971H163.966V61.6001H162.822ZM162.822 53.7741V52.2401H163.966V53.7741H162.822ZM165.936 59.6111V53.1111H167.08V59.6111C167.08 60.0271 167.162 60.3348 167.327 60.5341C167.5 60.7334 167.838 60.8331 168.341 60.8331H168.575V61.6521C168.514 61.6868 168.415 61.7128 168.276 61.7301C168.146 61.7474 167.999 61.7561 167.834 61.7561C167.193 61.7561 166.716 61.5828 166.404 61.2361C166.092 60.8808 165.936 60.3391 165.936 59.6111ZM164.974 55.6071V54.6971H168.601V55.6071H164.974ZM169.69 61.6001V54.6971H170.834V61.6001H169.69ZM170.834 57.5181H170.288C170.332 56.8594 170.462 56.3091 170.678 55.8671C170.895 55.4251 171.185 55.0914 171.549 54.8661C171.922 54.6408 172.342 54.5281 172.81 54.5281C173.27 54.5281 173.66 54.6234 173.98 54.8141C174.31 54.9961 174.561 55.2691 174.734 55.6331C174.908 55.9971 174.994 56.4478 174.994 56.9851V61.6001H173.85V57.2191C173.85 56.8724 173.803 56.5734 173.707 56.3221C173.612 56.0621 173.465 55.8628 173.265 55.7241C173.066 55.5768 172.81 55.5031 172.498 55.5031C172.238 55.5031 172.004 55.5638 171.796 55.6851C171.597 55.7978 171.424 55.9494 171.276 56.1401C171.129 56.3308 171.016 56.5474 170.938 56.7901C170.869 57.0241 170.834 57.2668 170.834 57.5181ZM174.994 57.5181H174.318C174.362 56.8594 174.496 56.3091 174.721 55.8671C174.947 55.4251 175.246 55.0914 175.618 54.8661C175.991 54.6408 176.42 54.5281 176.905 54.5281C177.373 54.5281 177.776 54.6234 178.114 54.8141C178.452 54.9961 178.708 55.2691 178.881 55.6331C179.063 55.9971 179.154 56.4478 179.154 56.9851V61.6001H178.01V57.2191C178.01 56.8724 177.963 56.5734 177.867 56.3221C177.772 56.0621 177.625 55.8628 177.425 55.7241C177.226 55.5768 176.97 55.5031 176.658 55.5031C176.398 55.5031 176.164 55.5638 175.956 55.6851C175.757 55.7978 175.584 55.9494 175.436 56.1401C175.289 56.3308 175.176 56.5474 175.098 56.7901C175.029 57.0241 174.994 57.2668 174.994 57.5181ZM186.384 57.4921L185.734 58.1031C185.734 57.2798 185.561 56.6428 185.214 56.1921C184.876 55.7414 184.395 55.5161 183.771 55.5161C183.13 55.5161 182.64 55.7458 182.302 56.2051C181.964 56.6558 181.795 57.3058 181.795 58.1551C181.795 58.9871 181.973 59.6328 182.328 60.0921C182.684 60.5428 183.186 60.7681 183.836 60.7681C184.322 60.7681 184.729 60.6511 185.058 60.4171C185.396 60.1831 185.626 59.8278 185.747 59.3511H186.943C186.753 60.1571 186.38 60.7594 185.825 61.1581C185.279 61.5568 184.616 61.7561 183.836 61.7561C183.169 61.7561 182.593 61.6131 182.107 61.3271C181.631 61.0411 181.262 60.6294 181.002 60.0921C180.751 59.5461 180.625 58.9004 180.625 58.1551C180.625 57.3751 180.751 56.7164 181.002 56.1791C181.262 55.6418 181.626 55.2344 182.094 54.9571C182.571 54.6711 183.13 54.5281 183.771 54.5281C184.421 54.5281 184.976 54.6711 185.435 54.9571C185.903 55.2431 186.263 55.6504 186.514 56.1791C186.766 56.6991 186.891 57.3274 186.891 58.0641V58.3501H181.106V57.4921H186.384ZM188.416 61.6001V54.6971H189.56V61.6001H188.416ZM189.56 57.5181H189.014C189.057 56.8594 189.192 56.3091 189.417 55.8671C189.651 55.4251 189.963 55.0914 190.353 54.8661C190.743 54.6408 191.189 54.5281 191.692 54.5281C192.186 54.5281 192.606 54.6234 192.953 54.8141C193.3 54.9961 193.564 55.2691 193.746 55.6331C193.937 55.9971 194.032 56.4478 194.032 56.9851V61.6001H192.888V57.2191C192.888 56.8724 192.832 56.5734 192.719 56.3221C192.615 56.0621 192.45 55.8628 192.225 55.7241C192.008 55.5768 191.727 55.5031 191.38 55.5031C191.094 55.5031 190.838 55.5638 190.613 55.6851C190.388 55.7978 190.197 55.9494 190.041 56.1401C189.885 56.3308 189.764 56.5474 189.677 56.7901C189.599 57.0241 189.56 57.2668 189.56 57.5181ZM196.011 59.6111V53.1111H197.155V59.6111C197.155 60.0271 197.238 60.3348 197.402 60.5341C197.576 60.7334 197.914 60.8331 198.416 60.8331H198.65V61.6521C198.59 61.6868 198.49 61.7128 198.351 61.7301C198.221 61.7474 198.074 61.7561 197.909 61.7561C197.268 61.7561 196.791 61.5828 196.479 61.2361C196.167 60.8808 196.011 60.3391 196.011 59.6111ZM195.049 55.6071V54.6971H198.676V55.6071H195.049Z" fill="#F6F6F6"/>
<defs>
<clipPath id="clip0_57_331">
<rect width="151" height="30" fill="white" transform="translate(10 10.6001)"/>
</clipPath>
</defs>
</svg>
