<svg width="602" height="181" viewBox="0 0 602 181" fill="none" xmlns="http://www.w3.org/2000/svg">
<path d="M288.198 22.543C288.198 22.543 323.436 72.2579 315.148 103.672C315.148 103.672 289.675 63.3456 255.044 60.9165C255.044 60.9165 272.737 85.2077 276.101 118.001C277.628 132.805 275.166 147.774 268.404 161.052C263.398 170.867 257.194 175.298 245.606 179.385C245.606 179.385 328.689 182.848 337.765 107.119C342.328 69.0245 315.755 40.9912 288.198 22.543Z" fill="#BF0076"/>
<path d="M194.447 89.9837C197.713 74.4735 203.261 63.7066 203.261 63.7066C167.004 81.5803 155.236 112.486 155.236 112.486C139.562 85.0434 165.084 31.5372 165.084 31.5372C141.253 52.7263 122.919 81.3505 132.669 116.425C155.138 197.144 236.973 178.958 236.973 178.958C235.184 179.155 232.082 177.547 228.537 175.151C200.963 156.391 187.586 122.596 194.447 89.9673V89.9837Z" fill="#BF0076"/>
<path d="M262.397 103.098C228.553 105.576 219.887 123.351 219.887 123.351C214.75 104.722 238.598 76.525 238.598 76.525C238.598 76.525 207.101 86.6518 203.359 124.631C199.601 162.611 244.211 179.434 244.211 179.434C228.455 147.281 262.38 103.114 262.413 103.098H262.397Z" fill="#BF0076"/>
<path d="M178.395 65.1508C186.191 66.0864 193.265 60.5388 194.201 52.7262C195.136 44.9301 189.589 37.8561 181.776 36.9206C173.98 35.985 166.906 41.5326 165.971 49.3452C165.035 57.1413 170.583 64.2153 178.395 65.1508Z" fill="#BF0076"/>
<path d="M279.056 62.2789C286.409 63.1816 293.073 57.9294 293.959 50.5764C294.845 43.2234 289.593 36.5433 282.256 35.6735C274.903 34.7872 268.223 40.0393 267.354 47.3759C266.467 54.7289 271.719 61.409 279.072 62.2789H279.056Z" fill="#BF0076"/>
<path d="M233.067 92.1996C232.426 97.5502 236.234 102.392 241.568 103.049C246.919 103.689 251.761 99.8808 252.417 94.5466C253.058 89.196 249.25 84.3542 243.915 83.6977C238.565 83.0576 233.723 86.8654 233.067 92.1996Z" fill="#BF0076"/>
<path d="M96.0841 51.7744C90.914 48.3933 85.2023 45.9642 78.949 44.4871C72.6956 43.0099 66.4095 42.2713 60.1069 42.2713C50.9485 42.2713 42.5943 43.6172 35.0279 46.3089C27.4615 49.0006 21.0769 53.0382 15.8412 58.4052C15.7919 58.4545 15.7427 58.5037 15.677 58.5694C8.11066 66.4312 12.9197 79.5944 23.703 81.1208L24.2938 81.2028C29.1357 81.8922 33.9282 79.8734 36.9318 76.0163C38.3926 74.1453 40.1816 72.4055 42.3153 70.8134C46.7139 67.5144 52.7047 65.8731 60.2546 65.8731C67.4107 65.8731 72.8926 67.6293 76.7004 71.1581C80.5082 74.6869 82.4121 79.66 82.4121 86.0775V86.5863C82.4121 89.5406 81.3289 91.7071 79.1295 93.1022C76.9466 94.4973 73.4671 95.5149 68.6909 96.1714C63.9147 96.828 57.6942 97.5501 50.0129 98.338C43.6447 99.0273 37.4899 100.111 31.5484 101.621C25.6069 103.131 20.2727 105.33 15.5621 108.235C10.8352 111.14 7.12589 114.997 4.38492 119.839C1.66037 124.664 0.298096 130.77 0.298096 138.172C0.298096 146.756 2.21841 153.978 6.05904 159.821C9.88326 165.68 15.1354 170.095 21.7498 173.083C28.3807 176.07 35.8321 177.547 44.1371 177.547L44.1699 177.58C50.9977 177.58 56.9392 176.628 62.0272 174.724C67.1152 172.82 71.3498 170.292 74.7309 167.141C78.1119 163.99 80.738 160.592 82.6255 156.949H83.6431C83.6431 166.878 91.7019 174.937 101.632 174.937H113.301V87.2756C113.301 78.5768 111.726 71.3222 108.574 65.5285C105.423 59.7347 101.254 55.1391 96.0841 51.758V51.7744ZM82.4942 127.947C82.4942 132.772 81.2632 137.237 78.7849 141.323C76.3065 145.41 72.8105 148.693 68.2477 151.171C63.7014 153.65 58.3179 154.881 52.1302 154.881C45.9425 154.881 40.4278 153.436 36.2753 150.531C32.1228 147.626 30.0548 143.342 30.0548 137.647C30.0548 133.675 31.1052 130.409 33.2061 127.881C35.3069 125.354 38.1792 123.368 41.8065 121.956C45.4337 120.545 49.5534 119.511 54.1654 118.887C56.217 118.608 58.6297 118.263 61.4199 117.869C64.2102 117.475 67.0168 117.016 69.8562 116.507C72.6956 115.998 75.2725 115.407 77.5703 114.718C79.8681 114.045 81.5094 113.307 82.4778 112.502V127.931L82.4942 127.947Z" fill="#BF0076"/>
<path d="M451.162 130.179H443.152C442.25 134.906 440.559 138.911 438.114 142.21C435.684 145.509 432.648 148.02 429.037 149.743C425.41 151.467 421.356 152.337 416.793 152.337C410.359 152.337 404.779 150.613 400.036 147.183C395.292 143.736 391.616 138.829 389.006 132.428C386.396 126.027 385.083 118.263 385.083 109.45C385.083 100.636 386.413 93.0695 389.055 86.7669C391.698 80.4479 395.407 75.6061 400.183 72.225C404.959 68.8603 410.507 67.1534 416.81 67.1534C424.245 67.1534 430.203 69.2707 434.667 73.5052C439.131 77.7233 441.954 83.0083 443.152 89.3109H451.195C463.8 89.3109 471.563 75.1793 464.44 64.7571C464.391 64.6915 464.342 64.6094 464.292 64.5437C459.401 57.4698 452.852 51.9878 444.63 48.098C436.407 44.1917 427.002 42.2549 416.366 42.2549C403.581 42.2549 392.502 45.1108 383.163 50.8225C373.808 56.5342 366.57 64.4945 361.465 74.687C356.361 84.8958 353.784 96.6967 353.784 109.942C353.784 123.187 356.295 134.873 361.317 145.033C366.356 155.176 373.545 163.12 382.9 168.864C392.256 174.609 403.449 177.465 416.531 177.465V177.498C427.511 177.498 437.063 175.495 445.188 171.491C453.328 167.469 459.746 161.922 464.456 154.782C464.506 154.717 464.555 154.634 464.604 154.569C471.448 144.097 463.652 130.179 451.145 130.179H451.162Z" fill="#BF0076"/>
<path d="M580.382 47.9502C573.619 44.1588 565.676 42.2384 556.599 42.2384C546.604 42.2384 538.364 44.3885 531.914 48.6723C525.464 52.9725 520.704 58.7991 517.635 66.185H516.092V15.3868C516.092 7.04906 509.346 0.286926 500.992 0.286926C492.638 0.286926 485.892 7.04906 485.892 15.3868V174.921C502.945 174.921 516.765 161.101 516.765 144.048V98.1738H516.781C516.781 91.8876 517.979 86.5042 520.409 82.0727C522.838 77.6412 526.169 74.2437 530.47 71.8802C534.77 69.5168 539.628 68.335 545.094 68.335C553.218 68.335 559.537 70.797 564.067 75.7045C568.597 80.6119 570.846 87.489 570.846 96.2863V159.46C570.846 167.978 577.755 174.888 586.274 174.888C594.792 174.888 601.702 167.978 601.702 159.46V91.5101C601.702 80.9402 599.831 71.9951 596.122 64.6585C592.396 57.3384 587.16 51.758 580.382 47.9502Z" fill="#BF0076"/>
</svg>
