<svg width="68" height="69" viewBox="0 0 68 69" fill="none" xmlns="http://www.w3.org/2000/svg">
<rect y="0.600098" width="68" height="68" rx="34" fill="#FFE3FA"/>
<g clip-path="url(#clip0_195_208)">
<path d="M24.8271 48.3199C24.3693 48.319 23.9196 48.1991 23.5223 47.9717C22.6276 47.4646 22.0713 46.4803 22.0713 45.4118V23.7881C22.0713 22.7165 22.6276 21.7353 23.5223 21.2282C23.9291 20.9944 24.3913 20.8741 24.8606 20.8801C25.3297 20.886 25.7887 21.0178 26.1894 21.2618L44.6704 32.3242C45.0556 32.5657 45.3731 32.9011 45.5931 33.2989C45.8133 33.6967 45.9287 34.1438 45.9287 34.5985C45.9287 35.0531 45.8133 35.5002 45.5931 35.898C45.3731 36.2958 45.0556 36.6312 44.6704 36.8726L26.1865 47.9381C25.7763 48.1861 25.3065 48.3181 24.8271 48.3199Z" fill="#BF0076"/>
</g>
<defs>
<clipPath id="clip0_195_208">
<rect width="28" height="28" fill="white" transform="translate(20 20.6001)"/>
</clipPath>
</defs>
</svg>
