<svg width="24" height="25" viewBox="0 0 24 25" fill="none" xmlns="http://www.w3.org/2000/svg">
<path d="M7 12C4.51472 12 2.5 9.98528 2.5 7.5C2.5 5.01472 4.51472 3 7 3C9.48528 3 11.5 5.01472 11.5 7.5C11.5 9.98528 9.48528 12 7 12ZM7 22C4.51472 22 2.5 19.9853 2.5 17.5C2.5 15.0147 4.51472 13 7 13C9.48528 13 11.5 15.0147 11.5 17.5C11.5 19.9853 9.48528 22 7 22ZM17 12C14.5147 12 12.5 9.98528 12.5 7.5C12.5 5.01472 14.5147 3 17 3C19.4853 3 21.5 5.01472 21.5 7.5C21.5 9.98528 19.4853 12 17 12ZM17 22C14.5147 22 12.5 19.9853 12.5 17.5C12.5 15.0147 14.5147 13 17 13C19.4853 13 21.5 15.0147 21.5 17.5C21.5 19.9853 19.4853 22 17 22Z" fill="#DA0087"/>
</svg>
