<svg width="28" height="28" viewBox="0 0 28 28" fill="none" xmlns="http://www.w3.org/2000/svg">
<path d="M8.16675 14.5833C8.85898 14.5833 9.53567 14.3781 10.1112 13.9935C10.6868 13.6089 11.1354 13.0622 11.4003 12.4228C11.6652 11.7832 11.7345 11.0794 11.5995 10.4005C11.4644 9.72159 11.1311 9.09795 10.6416 8.60846C10.1521 8.11897 9.52849 7.78563 8.84956 7.65058C8.17063 7.51554 7.4669 7.58485 6.82736 7.84975C6.18781 8.11466 5.64119 8.56326 5.2566 9.13884C4.87202 9.71441 4.66675 10.3911 4.66675 11.0833C4.66675 12.0115 5.0355 12.9018 5.69187 13.5582C6.34825 14.2146 7.23849 14.5833 8.16675 14.5833ZM8.16675 9.91667C8.39749 9.91667 8.62305 9.98509 8.81491 10.1133C9.00677 10.2415 9.1563 10.4237 9.24461 10.6369C9.33291 10.85 9.35601 11.0846 9.311 11.3109C9.26598 11.5372 9.15487 11.7452 8.99171 11.9083C8.82854 12.0715 8.62066 12.1826 8.39435 12.2276C8.16804 12.2726 7.93346 12.2495 7.72029 12.1612C7.5071 12.0729 7.32489 11.9233 7.1967 11.7315C7.06851 11.5396 7.00008 11.3141 7.00008 11.0833C7.00008 10.7739 7.123 10.4772 7.34179 10.2584C7.56058 10.0396 7.85733 9.91667 8.16675 9.91667ZM23.3334 7.58333H14.0001C13.6907 7.58333 13.3939 7.70625 13.1751 7.92504C12.9564 8.14384 12.8334 8.44058 12.8334 8.75V15.75H3.50008V6.41667C3.50008 6.10724 3.37716 5.8105 3.15838 5.5917C2.93958 5.37292 2.64284 5.25 2.33341 5.25C2.02399 5.25 1.72725 5.37292 1.50845 5.5917C1.28967 5.8105 1.16675 6.10724 1.16675 6.41667V21.5833C1.16675 21.8927 1.28967 22.1895 1.50845 22.4083C1.72725 22.627 2.02399 22.75 2.33341 22.75C2.64284 22.75 2.93958 22.627 3.15838 22.4083C3.37716 22.1895 3.50008 21.8927 3.50008 21.5833V18.0833H24.5001V21.5833C24.5001 21.8927 24.623 22.1895 24.8418 22.4083C25.0605 22.627 25.3573 22.75 25.6667 22.75C25.9761 22.75 26.2729 22.627 26.4917 22.4083C26.7104 22.1895 26.8334 21.8927 26.8334 21.5833V11.0833C26.8334 10.1551 26.4646 9.26484 25.8083 8.60846C25.1519 7.95208 24.2616 7.58333 23.3334 7.58333ZM24.5001 15.75H15.1667V9.91667H23.3334C23.6428 9.91667 23.9396 10.0396 24.1584 10.2584C24.3771 10.4772 24.5001 10.7739 24.5001 11.0833V15.75Z" fill="#F6F6F6"/>
</svg>
