<svg width="28" height="28" viewBox="0 0 28 28" fill="none" xmlns="http://www.w3.org/2000/svg">
<path d="M16.7767 12.6347H15.4033V11.2613C15.4033 10.8971 15.2587 10.5478 15.0011 10.2902C14.7435 10.0327 14.3942 9.88794 14.0301 9.88794C13.6658 9.88794 13.3164 10.0327 13.0589 10.2902C12.8013 10.5478 12.6567 10.8971 12.6567 11.2613V12.6347H11.2833C10.919 12.6347 10.5697 12.7793 10.3121 13.037C10.0546 13.2945 9.90985 13.6439 9.90985 14.008C9.90985 14.3723 10.0546 14.7216 10.3121 14.9792C10.5697 15.2366 10.919 15.3814 11.2833 15.3814H12.6567V16.7548C12.6567 17.1189 12.8013 17.4682 13.0589 17.7258C13.3164 17.9834 13.6658 18.1281 14.0301 18.1281C14.3942 18.1281 14.7435 17.9834 15.0011 17.7258C15.2587 17.4682 15.4033 17.1189 15.4033 16.7548V15.3814H16.7767C17.141 15.3814 17.4902 15.2366 17.7479 14.9792C18.0054 14.7216 18.15 14.3723 18.15 14.008C18.15 13.6439 18.0054 13.2945 17.7479 13.037C17.4902 12.7793 17.141 12.6347 16.7767 12.6347ZM25.2366 4.39457C23.7722 2.94522 21.838 2.06707 19.783 1.91856C17.728 1.76992 15.6877 2.36072 14.0301 3.58432C12.2825 2.28454 10.1076 1.69526 7.94308 1.93489C5.77868 2.17464 3.78532 3.22557 2.36467 4.87606C0.9439 6.52654 0.201434 8.65407 0.286484 10.8301C0.37165 13.0062 1.27815 15.0691 2.8234 16.6037L11.0636 24.9125C11.836 25.684 12.8832 26.1173 13.9751 26.1173C15.0669 26.1173 16.1141 25.684 16.8866 24.9125L25.1267 16.6037C25.9382 15.8108 26.5851 14.8653 27.0301 13.8216C27.4751 12.7779 27.7094 11.6565 27.7196 10.5219C27.7298 9.38744 27.5157 8.26196 27.0895 7.21044C26.6635 6.15892 26.0336 5.20191 25.2366 4.39457ZM23.3001 14.6398L15.06 22.8799C14.9324 23.0086 14.7804 23.1108 14.613 23.1806C14.4457 23.2502 14.2662 23.2862 14.0849 23.2862C13.9036 23.2862 13.7242 23.2502 13.5567 23.1806C13.3893 23.1108 13.2374 23.0086 13.1099 22.8799L4.86973 14.6398C3.79267 13.5388 3.1895 12.0598 3.1895 10.5197C3.1895 8.97957 3.79267 7.50059 4.86973 6.39961C5.96722 5.31601 7.44748 4.70841 8.9897 4.70841C10.5319 4.70841 12.0123 5.31601 13.1099 6.39961C13.2374 6.52841 13.3893 6.63049 13.5567 6.70026C13.7242 6.77002 13.9037 6.80584 14.0849 6.80584C14.2661 6.80584 14.4457 6.77002 14.613 6.70026C14.7804 6.63049 14.9324 6.52841 15.06 6.39961C16.1575 5.31601 17.6376 4.70841 19.1801 4.70841C20.7224 4.70841 22.2025 5.31601 23.3001 6.39961C24.3854 7.50187 24.9938 8.98657 24.9938 10.5335C24.9938 12.0803 24.3854 13.565 23.3001 14.6673V14.6398Z" fill="#F6F6F6"/>
</svg>
