<svg width="28" height="28" viewBox="0 0 28 28" fill="none" xmlns="http://www.w3.org/2000/svg">
<rect width="28" height="28" fill="#1E1E1E"/>
<g clip-path="url(#clip0_3_5)">
<rect width="1440" height="7835.6" transform="translate(-120 -1304)" fill="#F6F6F6"/>
<g clip-path="url(#clip1_3_5)">
<rect width="1440" height="896" transform="translate(-120 -362)" fill="#F6F6F6"/>
<rect x="-39.5" y="-39.5" width="304" height="513" rx="31.5" fill="#F6F6F6"/>
<rect x="-39.5" y="-39.5" width="304" height="513" rx="31.5" stroke="#E7E7E7"/>
<rect x="-20" y="-20" width="68" height="68" rx="34" fill="#BF0076"/>
<g clip-path="url(#clip2_3_5)">
<path d="M23.6049 8.51203C22.6352 8.51016 21.696 8.85165 20.9539 9.47581C20.2116 10.1001 19.7144 10.9668 19.55 11.9225C19.3856 12.8783 19.565 13.8613 20.056 14.6977C20.5471 15.534 21.3181 16.1694 22.2329 16.4916V18.802C22.2329 20.4396 21.5824 22.0099 20.4246 23.1677C19.2668 24.3256 17.6963 24.976 16.0589 24.976C14.4215 24.976 12.851 24.3256 11.6931 23.1677C10.5353 22.0099 9.88488 20.4396 9.88488 18.802V17.9926C11.8011 17.6676 13.5409 16.6754 14.7962 15.1914C16.0515 13.7077 16.7418 11.8277 16.7449 9.88403V1.65203C16.7449 1.28815 16.6002 0.939196 16.343 0.681829C16.0857 0.424579 15.7367 0.280029 15.3729 0.280029H12.6289C12.265 0.280029 11.9159 0.424579 11.6587 0.681829C11.4014 0.939196 11.2569 1.28815 11.2569 1.65203C11.2569 2.01591 11.4014 2.36486 11.6587 2.62223C11.9159 2.87948 12.265 3.02403 12.6289 3.02403H14.0009V9.88403C14.0009 11.3396 13.4227 12.7355 12.3934 13.7646C11.3642 14.7938 9.9683 15.372 8.51288 15.372C7.05735 15.372 5.66143 14.7938 4.6322 13.7646C3.60308 12.7355 3.02488 11.3396 3.02488 9.88403V3.02403H4.39688C4.76077 3.02403 5.10972 2.87948 5.36697 2.62223C5.62433 2.36486 5.76888 2.01591 5.76888 1.65203C5.76888 1.28815 5.62433 0.939196 5.36697 0.681829C5.10972 0.424579 4.76077 0.280029 4.39688 0.280029H1.65288C1.289 0.280029 0.94005 0.424579 0.682684 0.681829C0.425434 0.939196 0.280884 1.28815 0.280884 1.65203V9.88403C0.283917 11.8277 0.974117 13.7077 2.22957 15.1914C3.4849 16.6754 5.22452 17.6676 7.14088 17.9926V18.802C7.14088 21.1672 8.0804 23.4356 9.75282 25.108C11.4254 26.7805 13.6937 27.72 16.0589 27.72C18.4241 27.72 20.6924 26.7805 22.3648 25.108C24.0373 23.4356 24.9769 21.1672 24.9769 18.802V16.4916C25.8916 16.1694 26.6626 15.534 27.1537 14.6977C27.6447 13.8613 27.824 12.8783 27.6596 11.9225C27.4953 10.9668 26.998 10.1001 26.2558 9.47581C25.5137 8.85165 24.5746 8.51016 23.6049 8.51203ZM23.6049 14C23.3335 14 23.0682 13.9196 22.8426 13.7688C22.617 13.6181 22.4411 13.4037 22.3373 13.1531C22.2334 12.9024 22.2062 12.6265 22.2591 12.3604C22.3121 12.0943 22.4428 11.8497 22.6347 11.6579C22.8265 11.4659 23.071 11.3354 23.3371 11.2824C23.6034 11.2294 23.8793 11.2566 24.1299 11.3604C24.3806 11.4643 24.5949 11.6402 24.7457 11.8657C24.8964 12.0915 24.9769 12.3567 24.9769 12.628C24.9764 12.9918 24.8319 13.3405 24.5746 13.5978C24.3174 13.855 23.9685 13.9997 23.6049 14Z" fill="#F6F6F6"/>
</g>
</g>
</g>
<defs>
<clipPath id="clip0_3_5">
<rect width="1440" height="7835.6" fill="white" transform="translate(-120 -1304)"/>
</clipPath>
<clipPath id="clip1_3_5">
<rect width="1440" height="7835.6" fill="white" transform="translate(-120 -1304)"/>
</clipPath>
<clipPath id="clip2_3_5">
<rect width="28" height="28" fill="white"/>
</clipPath>
</defs>
</svg>
