<svg width="28" height="28" viewBox="0 0 28 28" fill="none" xmlns="http://www.w3.org/2000/svg">
<path d="M14.0001 14C19.2809 14 22.5815 8.28336 19.941 3.71003C18.7156 1.58754 16.451 0.280029 14.0001 0.280029C8.71929 0.280029 5.41877 5.9967 8.05919 10.57C9.28461 12.6925 11.5493 14 14.0001 14ZM8.85512 16.9584C4.88918 18.1214 1.99512 21.7872 1.99512 26.1283C1.99512 27.0072 2.70792 27.72 3.58685 27.72H24.4134C25.2923 27.72 26.0051 27.0072 26.0051 26.1283C26.0051 21.7872 23.1111 18.1214 19.1451 16.9584V19.681C20.6243 20.0615 21.7176 21.4067 21.7176 23.0038V25.1475C21.7176 25.6192 21.3317 26.005 20.8601 26.005H20.0026C19.531 26.005 19.1451 25.6192 19.1451 25.1475C19.1451 24.6759 19.531 24.29 20.0026 24.29V23.0038C20.0026 22.0552 19.2362 21.2888 18.2876 21.2888C17.339 21.2888 16.5726 22.0552 16.5726 23.0038V24.29C17.0442 24.29 17.4301 24.6759 17.4301 25.1475C17.4301 25.6192 17.0442 26.005 16.5726 26.005H15.7151C15.2435 26.005 14.8576 25.6192 14.8576 25.1475V23.0038C14.8576 21.4067 15.9509 20.0615 17.4301 19.681V16.6208C17.1086 16.5886 16.7816 16.5725 16.4494 16.5725H11.5509C11.2186 16.5725 10.8917 16.5886 10.5701 16.6208V20.1258C11.8081 20.4956 12.7139 21.6425 12.7139 23.0038C12.7139 24.6598 11.3687 26.005 9.71262 26.005C8.05657 26.005 6.71137 24.6598 6.71137 23.0038C6.71137 21.6425 7.61711 20.4956 8.85512 20.1258V16.9584ZM9.71262 24.29C10.7028 24.2901 11.3216 23.2182 10.8266 22.3607C10.5968 21.9627 10.1722 21.7175 9.71262 21.7175C8.72246 21.7175 8.10362 22.7893 8.59866 23.6469C8.82843 24.0449 9.25304 24.29 9.71262 24.29Z" fill="#F6F6F6"/>
</svg>
